<?xml version="1.0" standalone="no"?>
<!DOCTYPE svg PUBLIC "-//W3C//DTD SVG 20010904//EN"
 "http://www.w3.org/TR/2001/REC-SVG-20010904/DTD/svg10.dtd">
<svg version="1.0" xmlns="http://www.w3.org/2000/svg"
 width="800.000000pt" height="800.000000pt" viewBox="0 0 800.000000 800.000000"
 preserveAspectRatio="xMidYMid meet">
<metadata>
Created by potrace 1.11, written by Peter Selinger 2001-2013
</metadata>
<g transform="translate(0.000000,800.000000) scale(0.100000,-0.100000)"
fill="#000000" stroke="none">
<path d="M1115 7985 c-139 -26 -196 -42 -300 -85 -249 -104 -456 -277 -604
-505 -104 -159 -166 -324 -200 -530 -6 -39 -9 -1103 -8 -2985 l2 -2925 27 -97
c58 -210 153 -376 302 -524 165 -165 343 -262 580 -313 122 -27 363 -23 483 8
342 87 608 300 763 612 30 61 73 183 84 244 12 59 16 80 22 120 3 22 6 911 6
1975 1 1065 5 1964 9 1999 47 340 291 617 635 718 l89 27 1905 2 c2154 3 2068
2 2158 21 37 8 76 16 87 18 103 21 315 123 392 190 7 5 36 30 65 55 58 49 152
153 193 214 92 136 164 322 183 471 9 66 9 287 0 350 -31 218 -151 450 -322
621 -165 166 -372 275 -605 321 -20 4 -1350 8 -2956 9 -2372 2 -2933 0 -2990
-11z"/>
<path d="M4008 4224 c-126 -32 -223 -129 -268 -267 -9 -30 -12 -234 -12 -867
0 -455 3 -843 7 -861 39 -179 207 -303 398 -295 146 6 96 -37 1009 874 651
650 823 827 847 871 59 112 60 234 4 349 -36 74 -102 138 -181 175 l-67 32
-845 1 c-634 0 -857 -2 -892 -12z"/>
</g>
</svg>
